<svg width="114" height="33" viewBox="0 0 114 33" fill="none" xmlns="http://www.w3.org/2000/svg">
<path d="M31.1176 8.1982C29.5294 8.1982 28.4375 8.80008 27.7426 9.90353C27.0477 11.007 27.0477 11.5086 27.0477 13.2139V14.1167H25.7573V16.5243H27.0477V25.5525H29.8272V16.5243H32.7059V14.1167H29.8272V13.2139C29.8272 11.4083 29.9264 11.1073 30.9191 10.7061C31.1176 10.6058 31.3162 10.6058 31.5147 10.6058C31.8125 10.6058 32.1103 10.7061 32.3088 10.8064L32.7059 11.007V8.69977L32.6066 8.59945C32.2096 8.29851 31.7132 8.1982 31.1176 8.1982ZM34.3934 7.99757H37.1729V25.5525H34.3934V7.99757ZM45.412 13.9161C42.1362 13.9161 39.5553 16.5243 39.5553 19.8346C39.5553 23.1449 42.1362 25.7531 45.412 25.7531C48.6878 25.7531 51.2687 23.1449 51.2687 19.8346C51.2687 16.5243 48.6878 13.9161 45.412 13.9161ZM45.412 23.4459C43.6252 23.4459 42.2355 21.9412 42.2355 19.8346C42.2355 17.728 43.6252 16.2233 45.412 16.2233C47.1988 16.2233 48.5885 17.728 48.5885 19.8346C48.5885 21.9412 47.1988 23.4459 45.412 23.4459ZM78.1698 21.239L76.1845 15.2202L75.7875 14.1167H73.8021L73.5043 15.2202L71.519 21.239L69.1366 14.217L69.2359 14.1167H66.3572L66.4564 14.3174L64.074 21.239L62.0887 15.2202L61.6916 14.1167H59.7063L59.21 15.2202L57.2247 21.239L54.8423 14.1167H52.0628L56.3313 25.5525H58.0188L60.5005 18.9318L62.9821 25.5525H64.6696L67.5484 17.9286L70.4271 25.5525H72.1146L74.5963 18.9318L77.0779 25.5525H79.0632L83.431 14.1167H80.6515L78.1698 21.239ZM89.784 13.9161C86.5082 13.9161 83.9273 16.5243 83.9273 19.8346C83.9273 23.1449 86.5082 25.7531 89.784 25.7531C93.0598 25.7531 95.6407 23.1449 95.6407 19.8346C95.6407 16.5243 93.0598 13.9161 89.784 13.9161ZM89.784 23.4459C87.9972 23.4459 86.6075 21.9412 86.6075 19.8346C86.6075 17.728 87.9972 16.2233 89.784 16.2233C91.5708 16.2233 92.9605 17.728 92.9605 19.8346C92.9605 21.9412 91.5708 23.4459 89.784 23.4459ZM110.729 14.1167L108.347 21.239L106.362 15.2202L105.964 14.1167H103.979L103.681 15.2202L101.696 21.239L99.3136 14.1167H96.5341L100.902 25.5525H102.589L105.071 18.9318L107.553 25.5525H109.24L113.608 14.1167H110.729ZM11.2644 21.4396L11.1651 15.2202C14.0438 14.8189 16.1284 13.1136 17.2204 10.1041C18.213 7.496 18.4116 3.58378 18.1138 1.47719C16.4262 1.87845 13.8453 3.28284 13.0512 3.98503C12.4556 2.88158 11.0659 1.27657 10.0732 0.47406C9.08054 1.37688 7.69082 2.88158 7.09522 3.98503C6.30109 3.28284 3.72017 1.87845 2.03264 1.47719C1.73484 3.58378 1.93337 7.496 2.92604 10.1041C4.01797 13.1136 6.10256 14.8189 8.98128 15.2202V21.5399C8.98128 21.5399 8.98128 21.4396 8.88201 21.4396C7.39302 19.0321 4.5143 16.4239 0.742179 15.4208C-0.0519508 22.0415 2.62824 29.866 10.0732 32.4741C17.5182 29.866 20.1984 21.9412 19.4042 15.3205C15.6321 16.4239 12.8527 19.0321 11.2644 21.4396ZM2.82677 18.6308C5.70549 20.3362 8.98128 23.5462 8.88201 29.565C5.20916 27.1575 3.22384 23.5462 2.82677 18.6308ZM10.0732 13.0133C5.40769 13.0133 4.31576 8.80008 4.11723 4.58691C5.40769 5.28911 6.59889 6.29224 7.59155 7.39569C8.28641 5.89099 8.88201 4.78754 10.0732 3.58378C11.2644 4.78754 11.86 5.89099 12.5549 7.39569C13.5475 6.39256 14.7387 5.28911 16.0292 4.68723C15.8306 8.80008 14.7387 13.0133 10.0732 13.0133ZM11.2644 29.565C11.2644 23.5462 14.5402 20.2359 17.3196 18.6308C17.0218 23.5462 15.0365 27.1575 11.2644 29.565Z" fill="#FA4D1E"/>
</svg>
