<?xml version="1.0" encoding="UTF-8"?><!DOCTYPE svg PUBLIC "-//W3C//DTD SVG 1.1//EN" "http://www.w3.org/Graphics/SVG/1.1/DTD/svg11.dtd"><svg xmlns="http://www.w3.org/2000/svg" xmlns:xlink="http://www.w3.org/1999/xlink"><symbol id="flowwow"><path d="M31.118 8.198c-1.589 0-2.68.602-3.375 1.706-.695 1.103-.695 1.605-.695 3.31v.903h-1.29v2.407h1.29v9.028h2.78v-9.028h2.878v-2.407h-2.879v-.903c0-1.806.1-2.107 1.092-2.508.199-.1.397-.1.596-.1.297 0 .595.1.794.2l.397.201V8.7l-.1-.1c-.396-.301-.893-.402-1.488-.402Zm3.275-.2h2.78v17.554h-2.78V7.998Zm11.019 5.918c-3.276 0-5.857 2.608-5.857 5.919 0 3.31 2.581 5.918 5.857 5.918 3.276 0 5.857-2.608 5.857-5.918s-2.581-5.919-5.857-5.919Zm0 9.53c-1.787 0-3.176-1.505-3.176-3.611 0-2.107 1.39-3.612 3.176-3.612 1.787 0 3.177 1.505 3.177 3.612 0 2.106-1.39 3.61-3.177 3.61Zm32.758-2.207-1.986-6.019-.397-1.103h-1.985l-.298 1.103-1.985 6.019-2.382-7.022.099-.1h-2.879l.1.2-2.383 6.922-1.985-6.019-.397-1.103h-1.986l-.496 1.103-1.985 6.019-2.383-7.122h-2.78l4.27 11.435h1.687l2.482-6.62 2.481 6.62h1.688l2.878-7.623 2.88 7.623h1.687l2.481-6.62 2.482 6.62h1.985l4.368-11.435h-2.78l-2.481 7.122Zm11.614-7.323c-3.276 0-5.857 2.608-5.857 5.919 0 3.31 2.581 5.918 5.857 5.918 3.276 0 5.857-2.608 5.857-5.918s-2.581-5.919-5.857-5.919Zm0 9.53c-1.787 0-3.177-1.505-3.177-3.611 0-2.107 1.39-3.612 3.177-3.612 1.787 0 3.176 1.505 3.176 3.612 0 2.106-1.39 3.61-3.176 3.61Zm20.945-9.33-2.382 7.123-1.985-6.019-.398-1.103h-1.985l-.298 1.103-1.985 6.019-2.382-7.122h-2.78l4.368 11.435h1.687l2.482-6.62 2.482 6.62h1.687l4.368-11.435h-2.879ZM11.264 21.44l-.099-6.22c2.879-.401 4.963-2.106 6.055-5.116.993-2.608 1.192-6.52.894-8.627-1.688.401-4.269 1.806-5.063 2.508-.595-1.103-1.985-2.708-2.978-3.51-.992.902-2.382 2.407-2.978 3.51-.794-.702-3.375-2.107-5.062-2.508-.298 2.107-.1 6.019.893 8.627 1.092 3.01 3.177 4.715 6.055 5.116v6.32s0-.1-.099-.1c-1.489-2.408-4.368-5.016-8.14-6.02-.794 6.621 1.886 14.446 9.331 17.054 7.445-2.608 10.125-10.533 9.331-17.153-3.772 1.103-6.551 3.711-8.14 6.119Zm-8.437-2.81c2.878 1.706 6.154 4.916 6.055 10.935-3.673-2.408-5.658-6.019-6.055-10.934Zm7.246-5.617c-4.665 0-5.757-4.213-5.956-8.426 1.29.702 2.482 1.705 3.475 2.809.694-1.505 1.29-2.608 2.481-3.812 1.191 1.204 1.787 2.307 2.482 3.812.992-1.003 2.184-2.107 3.474-2.709-.198 4.113-1.29 8.326-5.956 8.326Zm1.191 16.552c0-6.019 3.276-9.33 6.056-10.934-.298 4.915-2.284 8.526-6.056 10.934Z"/></symbol></svg>